<svg xmlns="http://www.w3.org/2000/svg" viewBox="0 0 24 24" fill="none">
  <defs>
    <linearGradient id="toothGradient" x1="4" y1="3" x2="20" y2="21" gradientUnits="userSpaceOnUse">
      <stop offset="0" stop-color="#4f46e5" />
      <stop offset="1" stop-color="#6366f1" />
    </linearGradient>
  </defs>
  <path
    d="M8.2 3C6.3 3 4.5 4.2 3.9 6.3 3.5 7.7 3.7 9.3 4.4 10.8 5 12 6 13 6.7 14.3c.3.7.4 1.7.7 2.8.3 1.5.7 3.2 1.5 3.9.4.4 1 .6 1.5.4.5-.1.9-.6 1.1-1.1l1-2.6c.1-.2.2-.3.4-.3s.3.1.4.3l1 2.6c.2.5.6 1 1.1 1.1.5.2 1.1 0 1.5-.4.8-.7 1.2-2.4 1.5-3.9.2-1.1.4-2.1.7-2.8.4-1.3 1.4-2.3 2.1-3.7.7-1.5.9-3.1.5-4.5C19.8 4.2 18 3 16.1 3c-1.2 0-2.3.5-2.9 1.3-.6-.8-1.7-1.3-2.9-1.3Z"
    fill="url(#toothGradient)"
  />
</svg>
